<?xml version="1.0" encoding="UTF-8" standalone="no"?>
<!-- Created with Inkscape (http://www.inkscape.org/) -->

<svg
   width="29.712704mm"
   height="31.416729mm"
   viewBox="0 0 29.712704 31.416729"
   version="1.1"
   id="svg1"
   xml:space="preserve"
   xmlns:xlink="http://www.w3.org/1999/xlink"
   xmlns="http://www.w3.org/2000/svg"
   xmlns:svg="http://www.w3.org/2000/svg"><defs
     id="defs1"><linearGradient
       id="linearGradient12"><stop
         style="stop-color:#ffffff;stop-opacity:1;"
         offset="0"
         id="stop13" /><stop
         style="stop-color:#e195f1;stop-opacity:1;"
         offset="1"
         id="stop14" /></linearGradient><radialGradient
       xlink:href="#linearGradient12"
       id="radialGradient14"
       cx="439.47192"
       cy="98.294868"
       fx="439.47192"
       fy="98.294868"
       r="30.32943"
       gradientTransform="matrix(0.42313326,0,0,0.09210997,-171.95875,1.893978)"
       gradientUnits="userSpaceOnUse" /></defs><g
     id="g21"
     transform="matrix(0.26458333,0,0,0.26458333,-2.2489568,-0.68791865)"><rect
       width="107.2"
       height="84.099998"
       x="8.5"
       y="2.5999999"
       stroke-linejoin="round"
       stroke-width="1"
       rx="25"
       fill-opacity="1"
       opacity="1"
       fill="#c67dff"
       stroke-opacity="1"
       id="rect1-18" /><path
       d="m 79.7,83.7 c -6.9,5.8 32.6,40.1 41.1,37.5 C 88.8,93 92.8,84.7 97.2,84.8"
       fill="#c67dff"
       stroke-linecap="butt"
       id="path1" /></g><path
     style="font-size:13.3333px;white-space:pre;fill:url(#radialGradient14);stroke:#521284;stroke-width:0.421;stroke-linecap:round;stroke-linejoin:bevel;paint-order:stroke fill markers"
     d="m 3.8630225,13.631058 h -0.413215 q -0.4931025,0 -0.8016386,-0.275477 -0.3057773,-0.272722 -0.3057773,-0.790616 v -0.41046 q 0,-0.465557 -0.2286443,-0.72726 Q 1.8850988,11.162787 1.414033,11.162787 H 1.2735401 V 10.733043 H 1.414033 q 0.4710658,0 0.6997143,-0.261702 0.2286443,-0.264458 0.2286443,-0.7300132 V 9.3308674 q 0,-0.5178961 0.3057773,-0.7906181 Q 2.956705,8.2647726 3.4498075,8.2647726 h 0.413215 V 8.6449307 H 3.5489773 q -0.3746464,0 -0.5454442,0.1735503 -0.1680389,0.1735502 -0.1680389,0.5592175 v 0.4820842 q 0,0.3829123 -0.2121167,0.6446153 -0.2121167,0.258948 -0.589522,0.41046 v 0.06611 q 0.3774053,0.151513 0.589522,0.413216 0.2121167,0.258948 0.2121167,0.64186 v 0.482085 q 0,0.385669 0.1680389,0.559217 0.1707978,0.173552 0.5454442,0.173552 h 0.3140452 z m 3.5811969,0 H 7.0310043 q -0.4931025,0 -0.8016386,-0.275477 -0.3057773,-0.272722 -0.3057773,-0.790616 v -0.41046 q 0,-0.465557 -0.2286443,-0.72726 Q 5.4662956,11.162787 4.9952298,11.162787 H 4.8547369 v -0.429744 h 0.1404929 q 0.4710658,0 0.6997143,-0.261702 0.2286443,-0.264458 0.2286443,-0.7300132 V 9.3308674 q 0,-0.5178961 0.3057773,-0.7906181 Q 6.5379018,8.2647726 7.0310043,8.2647726 H 7.4442194 V 8.6449307 H 7.1301741 q -0.3746464,0 -0.5454442,0.1735503 Q 6.416691,8.9920312 6.416691,9.3776985 v 0.4820842 q 0,0.3829123 -0.2121167,0.6446153 -0.2121167,0.258948 -0.5895219,0.41046 v 0.06611 q 0.3774052,0.151513 0.5895219,0.413216 0.2121167,0.258948 0.2121167,0.64186 v 0.482085 q 0,0.385669 0.1680389,0.559217 0.1707978,0.173552 0.5454442,0.173552 h 0.3140453 z m 1.8704859,-1.07987 H 8.6563184 v -0.785107 h 0.6583869 z m 3.5977247,0 h -0.515139 v -0.327814 q -0.06887,0.04683 -0.187326,0.132229 -0.115701,0.08264 -0.225889,0.132225 -0.129475,0.06336 -0.297514,0.104683 -0.168043,0.04408 -0.393933,0.04408 -0.415969,0 -0.705219,-0.275477 -0.289254,-0.275477 -0.289254,-0.702467 0,-0.349855 0.148761,-0.564727 0.151512,-0.217627 0.429743,-0.341591 0.280986,-0.123965 0.674919,-0.168041 0.393928,-0.04408 0.845712,-0.06611 v -0.07989 q 0,-0.176304 -0.06336,-0.292005 -0.06061,-0.1157 -0.176307,-0.1818142 -0.110188,-0.06336 -0.264454,-0.085398 -0.15427,-0.022037 -0.322309,-0.022037 -0.203853,0 -0.454538,0.055095 -0.250682,0.05234 -0.517894,0.1542662 h -0.02755 V 9.5402312 q 0.151515,-0.041323 0.43801,-0.090907 0.286495,-0.049586 0.564727,-0.049586 0.325063,0 0.564726,0.055095 0.242421,0.052341 0.418724,0.1818149 0.173552,0.1267191 0.264458,0.3278169 0.09091,0.201098 0.09091,0.498613 z m -0.515139,-0.757561 v -0.856731 q -0.236913,0.01377 -0.559217,0.04132 -0.319555,0.02755 -0.50688,0.07989 -0.223135,0.06336 -0.360874,0.198343 -0.137738,0.132229 -0.137738,0.366384 0,0.264457 0.159775,0.399441 0.15978,0.132229 0.487598,0.132229 0.272722,0 0.498612,-0.104684 0.225889,-0.107433 0.418724,-0.256194 z m 4.129395,-2.3195116 -1.245154,3.0770726 h -0.520653 l -1.23689,-3.0770726 h 0.561972 l 0.95315,2.4489866 0.944886,-2.4489866 z m 3.34153,3.0770726 h -0.652877 l -0.873263,-1.181794 -0.878772,1.181794 h -0.60329 L 18.06109,11.016784 16.871032,9.4741154 h 0.652878 l 0.867753,1.1625116 0.870504,-1.1625116 h 0.606049 l -1.20934,1.5151216 z m 3.269911,-1.388401 h -0.140493 q -0.471066,0 -0.69971,0.264458 -0.228649,0.261703 -0.228649,0.72726 v 0.41046 q 0,0.517894 -0.308532,0.790616 -0.305781,0.275477 -0.798884,0.275477 h -0.413215 v -0.380156 h 0.314045 q 0.374647,0 0.54269,-0.173552 0.170793,-0.173548 0.170793,-0.559217 v -0.482085 q 0,-0.382912 0.212117,-0.64186 0.212117,-0.261703 0.589522,-0.413216 v -0.06611 Q 22.000406,10.763346 21.788289,10.504398 21.576172,10.242695 21.576172,9.8597827 V 9.3776985 q 0,-0.3856673 -0.170793,-0.5592175 -0.168043,-0.1735503 -0.54269,-0.1735503 H 20.548644 V 8.2647726 h 0.413215 q 0.493103,0 0.798884,0.2754767 0.308532,0.272722 0.308532,0.7906181 v 0.4104604 q 0,0.4655552 0.228649,0.7300132 0.228644,0.261702 0.69971,0.261702 h 0.140493 z m 3.581196,0 H 26.57883 q -0.471065,0 -0.69971,0.264458 -0.228648,0.261703 -0.228648,0.72726 v 0.41046 q 0,0.517894 -0.308532,0.790616 -0.305781,0.275477 -0.798884,0.275477 h -0.413215 v -0.380156 h 0.314045 q 0.374647,0 0.54269,-0.173552 0.170793,-0.173548 0.170793,-0.559217 v -0.482085 q 0,-0.382912 0.212117,-0.64186 0.212117,-0.261703 0.589522,-0.413216 v -0.06611 Q 25.581603,10.763346 25.369486,10.504398 25.157369,10.242695 25.157369,9.8597827 V 9.3776985 q 0,-0.3856673 -0.170793,-0.5592175 -0.168043,-0.1735503 -0.54269,-0.1735503 H 24.129841 V 8.2647726 h 0.413215 q 0.493103,0 0.798884,0.2754767 0.308532,0.272722 0.308532,0.7906181 v 0.4104604 q 0,0.4655552 0.228648,0.7300132 0.228645,0.261702 0.69971,0.261702 h 0.140493 z"
     id="text3"
     aria-label="{{.avx}}" /></svg>
